# xmcd CD database file
#
# Track frame offsets:
#	150
#	23908
#	41098
#	60277
#	80210
#	93451
#	112342
#	133088
#	158713
#	178968
#	198574
#
# Disc length: 2874 seconds
#
# Revision: 0
# Processed by: cddbd v1.5.2PL0 Copyright (c) Steve Scherf et al.
# Submitted via: CDex 1.51
#
DISCID=9e0b380b
DTITLE=Cadillac Pete And The Heat - Turn Up The Heat
DYEAR=2002
DGENRE=Blues
TTITLE0=Talk to Your Daughter 
TTITLE1=Devil In Her Eyes
TTITLE2=Broke And Hungry
TTITLE3=Naughty Neighbor Girl
TTITLE4=Flippin' A
TTITLE5=That Will Never Do
TTITLE6=Married Women
TTITLE7=U.S. Postal Service Man
TTITLE8=Ridin' In The Moonlight
TTITLE9=You Belong To Me
TTITLE10=Born In Chicago
EXTD=YEAR: 2002
EXTT0=
EXTT1=
EXTT2=
EXTT3=
EXTT4=
EXTT5=
EXTT6=
EXTT7=
EXTT8=
EXTT9=
EXTT10=
PLAYORDER=
